<svg width="100" height="100" viewBox="0 0 100 100" fill="none" xmlns="http://www.w3.org/2000/svg">
  <rect width="100" height="100" fill="#1A1A1A" />
  <path fill-rule="evenodd" clip-rule="evenodd"
    d="M56.7496 12C56.2001 12 55.6899 12.1183 55.2188 12.276C56.2199 12.9459 56.7693 13.8326 57.0442 14.8374C57.064 14.9755 57.1031 15.074 57.1226 15.2118C57.1423 15.3301 57.1621 15.4481 57.1621 15.5665C57.2404 17.3006 56.7104 17.5171 56.3374 18.542C55.7682 19.8623 55.9253 21.2808 56.6123 22.4237C56.6712 22.5615 56.7496 22.7192 56.848 22.857C56.102 17.872 60.2434 17.1231 61.0088 15.5665C61.0678 14.2068 59.9488 13.3005 59.0659 12.6699C58.2215 12.1576 57.4561 12 56.7496 12ZM62.9913 13.1231C62.9123 13.5765 62.9716 13.4582 62.9518 13.6945C62.9324 13.8521 62.9324 14.0491 62.9126 14.2068C62.8735 14.3644 62.8343 14.5221 62.7753 14.6797C62.7359 14.8374 62.6772 14.995 62.6183 15.1527C62.5397 15.3103 62.481 15.4484 62.4027 15.6058C62.3434 15.6848 62.3043 15.7634 62.2453 15.8424L62.1275 16.0196C62.0294 16.1577 61.9313 16.2955 61.8332 16.4139C61.7153 16.5322 61.6175 16.67 61.4799 16.7685V16.7883C61.3621 16.8868 61.2445 17.0048 61.1069 17.1036C60.6948 17.4186 60.2237 17.6552 59.7918 17.9507C59.6545 18.0492 59.5172 18.1282 59.3994 18.2465C59.2621 18.345 59.1442 18.4435 59.0267 18.5615C58.8891 18.6798 58.791 18.7981 58.6731 18.9359C58.575 19.0542 58.4575 19.1921 58.3788 19.3302C58.2807 19.468 58.1826 19.6059 58.1039 19.744C58.0256 19.9016 57.9666 20.0395 57.8883 20.1971C57.8294 20.3548 57.7704 20.4929 57.7313 20.6502C57.6788 20.8126 57.6329 20.977 57.5937 21.143C57.5742 21.2217 57.5742 21.3202 57.5545 21.3991C57.5347 21.4778 57.5347 21.5568 57.5153 21.6355C57.5153 21.7931 57.4956 21.9706 57.4956 22.1282C57.4956 22.2462 57.4956 22.3646 57.5153 22.4829C57.5153 22.6405 57.535 22.7982 57.5742 22.9753C57.594 23.133 57.6332 23.2906 57.6723 23.4483C57.7313 23.6059 57.7704 23.7636 57.8294 23.9209C57.8688 24.0197 57.9275 24.1182 57.9666 24.1972L53.4526 22.4432C52.6872 22.2267 51.9412 22.0294 51.1758 21.8523L49.9393 21.5565C48.7581 21.3201 47.566 21.1426 46.3674 21.0247C46.3279 21.0247 46.3082 21.0049 46.269 21.0049C45.0914 20.8866 43.9333 20.8277 42.7557 20.8277C41.8922 20.8277 41.0287 20.867 40.1846 20.9262C38.9873 21.0049 37.79 21.1625 36.593 21.3595C36.2983 21.3991 36.0037 21.458 35.7097 21.5172C35.101 21.6355 34.5124 21.7733 33.9432 21.9114L33.0599 22.1477C32.7653 22.2661 32.4907 22.4039 32.2159 22.5222L31.5683 22.818C31.5288 22.8375 31.4896 22.8375 31.4702 22.857C31.274 22.9555 31.0972 23.0345 30.9204 23.133C30.8618 23.1528 30.8223 23.1726 30.7832 23.1921C30.5675 23.2906 30.3515 23.4086 30.1748 23.5074C30.0375 23.5666 29.8999 23.6453 29.7824 23.7044C29.7234 23.7441 29.6448 23.7834 29.6056 23.8029C29.4288 23.9014 29.2523 23.9999 29.0953 24.0987C28.9185 24.1969 28.7615 24.2957 28.6242 24.3942C28.4869 24.4927 28.3493 24.5713 28.2318 24.6698C28.2121 24.6896 28.1923 24.6896 28.1729 24.7095C28.055 24.7881 27.9177 24.8866 27.7999 24.9851L27.7604 25.0248L27.4664 25.2611C27.4269 25.2806 27.3874 25.3202 27.3485 25.3397C27.2504 25.4187 27.1523 25.5172 27.0539 25.5959C27.0345 25.6355 26.9953 25.655 26.9756 25.6749C26.8577 25.7932 26.7402 25.8914 26.6223 26.0097C26.6026 26.0097 26.6026 26.0295 26.5828 26.0493C26.4653 26.1478 26.3474 26.2658 26.2296 26.3841C26.2101 26.404 26.2101 26.4238 26.1904 26.4238C26.0875 26.5241 25.9893 26.6292 25.8961 26.7388C25.8566 26.7784 25.798 26.8177 25.7588 26.8571C25.6607 26.9754 25.5428 27.0934 25.425 27.2117C25.4053 27.2514 25.3661 27.2709 25.3466 27.3102C25.1896 27.4679 25.052 27.6255 24.895 27.7831L24.8364 27.8423C24.5223 28.1771 24.1885 28.5122 23.8353 28.8077C23.4873 29.1195 23.1201 29.409 22.736 29.6746C22.3554 29.9426 21.9625 30.1926 21.5585 30.4235C21.1579 30.6442 20.7451 30.8416 20.322 31.0148C19.9046 31.1928 19.4788 31.3505 19.0463 31.4874C18.222 31.6649 17.3779 31.9997 16.6517 32.0589C16.4946 32.0589 16.3182 32.0985 16.1611 32.118C15.9844 32.1577 15.8273 32.197 15.6703 32.2363L15.1995 32.4138C15.0422 32.4727 14.8852 32.5516 14.7281 32.6303C14.5908 32.7288 14.4338 32.8078 14.2965 32.9063C14.1589 33.0048 14.0216 33.1228 13.9038 33.2414C13.7665 33.3399 13.6292 33.4777 13.5114 33.596C13.3935 33.7338 13.276 33.8522 13.1776 33.99C13.0795 34.1476 12.9619 34.2858 12.8833 34.4431C12.7851 34.5812 12.687 34.7389 12.6087 34.8965C12.5297 35.0737 12.4517 35.2314 12.3927 35.4088C12.3308 35.5785 12.2718 35.7493 12.216 35.9211C12.1768 36.0788 12.1376 36.2364 12.1178 36.3937C12.1178 36.4139 12.0981 36.4334 12.0981 36.4532C12.0589 36.6304 12.0589 36.867 12.0392 36.985C12.0197 37.1231 12 37.2411 12 37.3793C12 37.458 12 37.5564 12.0197 37.6354C12.0395 37.7732 12.0592 37.8916 12.0984 38.0099C12.1376 38.1279 12.1768 38.2462 12.2357 38.3645V38.384C12.2946 38.5023 12.373 38.6206 12.4513 38.739C12.5303 38.857 12.6087 38.9753 12.7065 39.0936C12.8049 39.1921 12.9227 39.3101 13.0406 39.4089C13.1581 39.5269 13.276 39.6254 13.4133 39.7242C13.8844 40.138 14.0022 40.2758 14.6106 40.5911C14.7087 40.6503 14.8068 40.6896 14.9246 40.7487C14.9444 40.7487 14.9638 40.7683 14.9836 40.7683C14.9836 40.8079 14.9836 40.8274 15.003 40.8671C15.0228 41.0247 15.0619 41.1824 15.1014 41.3397C15.1388 41.5019 15.1912 41.6603 15.2581 41.8126C15.3171 41.931 15.3566 42.0493 15.4152 42.1676C15.4349 42.2069 15.4547 42.2463 15.4741 42.2661C15.5528 42.4237 15.6311 42.5616 15.7098 42.6994L16.0041 43.1132C16.1022 43.2315 16.2198 43.3693 16.3379 43.4876C16.4555 43.6059 16.5733 43.7041 16.7106 43.8227C16.7106 43.8227 16.7303 43.8423 16.7501 43.8423C16.8676 43.9408 16.9855 44.0395 17.1033 44.1182C17.2406 44.2167 17.3779 44.2957 17.5349 44.3744C17.6725 44.4533 17.8295 44.532 17.9866 44.5909C18.1041 44.6503 18.2417 44.6897 18.379 44.729C18.3987 44.7488 18.4182 44.7488 18.4574 44.7686C18.5363 44.7882 18.6341 44.808 18.7125 44.8275C18.6539 45.8917 18.6341 46.8964 18.7915 47.2511C18.9676 47.6453 19.8315 46.4433 20.695 45.0641C20.5771 46.4235 20.4988 48.0198 20.695 48.4924C20.9109 48.9852 22.0885 47.4484 23.109 45.7536C37.0249 42.5222 49.7236 52.1775 51.0582 65.8127C50.8031 63.6846 48.1925 62.5024 46.9952 62.7979C46.4066 64.2561 45.4055 66.128 43.796 67.2907C43.9366 65.9749 43.8704 64.645 43.5998 63.3498C43.1682 65.1626 42.3241 66.8571 41.166 68.3153C39.3016 68.4531 37.437 67.5469 36.4557 66.1869C36.377 66.128 36.3576 66.01 36.2986 65.9307C36.2397 65.7929 36.1808 65.6551 36.1416 65.5172C36.0843 65.3851 36.0447 65.246 36.0238 65.1035C36.004 64.9653 36.004 64.8275 36.004 64.6698V64.3741C36.0238 64.2362 36.0629 64.0984 36.1021 63.9606C36.1416 63.8224 36.1808 63.6846 36.2397 63.5468C36.3181 63.4087 36.377 63.2708 36.4751 63.133C36.8089 62.1871 36.8089 61.4187 36.2005 60.9656C36.0827 60.8882 35.9578 60.8221 35.8276 60.7683C35.7489 60.7488 35.6508 60.7094 35.5724 60.6896C35.5135 60.6698 35.4743 60.65 35.4154 60.6304C35.2778 60.5908 35.1405 60.5515 35.0032 60.532C34.8692 60.493 34.7305 60.4731 34.5911 60.4728C34.4535 60.453 34.2964 60.4332 34.1591 60.4332C34.061 60.4332 33.9629 60.4533 33.8645 60.4533C33.7078 60.4533 33.5705 60.4728 33.4332 60.5121C33.2956 60.532 33.1583 60.5518 33.0208 60.5911C32.8835 60.6308 32.7459 60.6701 32.6086 60.7289C32.4713 60.7881 32.3535 60.8473 32.2162 60.9064C32.0983 60.9656 31.9805 61.0442 31.8432 61.1034C27.2702 64.0984 29.9983 71.1133 33.1189 73.1429C31.9413 73.3594 30.744 73.6156 30.4105 73.8717L30.371 73.9113C31.2154 74.4236 32.0983 74.8572 33.0208 75.2317C34.277 75.6452 35.6116 76.0196 36.2005 76.1773V76.1971C37.8267 76.5318 39.4895 76.6511 41.1465 76.5517C49.8412 75.941 56.9658 69.3005 58.2613 60.5518C58.3008 60.7289 58.3399 60.8866 58.3791 61.0641C58.438 61.4187 58.5164 61.7928 58.5556 62.1676V62.1871C58.5951 62.3646 58.6145 62.542 58.6343 62.6994V62.7787C58.654 62.9555 58.6737 63.133 58.6737 63.291C58.6932 63.5075 58.7126 63.724 58.7126 63.9411V64.2564C58.7126 64.3549 58.7324 64.4729 58.7324 64.5714C58.7324 64.6897 58.7126 64.808 58.7126 64.9263V65.202C58.7126 65.3401 58.6929 65.4581 58.6929 65.5962C58.6929 65.6749 58.6929 65.7539 58.6734 65.8524C58.6734 65.9902 58.6537 66.128 58.6537 66.2857C58.6339 66.3448 58.634 66.404 58.634 66.4631C58.6145 66.6208 58.5948 66.7589 58.575 66.9163C58.575 66.9754 58.575 67.0346 58.5556 67.0937C58.5358 67.2907 58.4967 67.4682 58.4769 67.6652V67.7045C58.4377 67.882 58.3986 68.079 58.3591 68.2564V68.3153L58.2415 68.8474C58.2415 68.8672 58.2218 68.9065 58.2218 68.9264C58.1823 69.1035 58.1431 69.281 58.0845 69.4582V69.5173C58.0256 69.7146 57.9666 69.8918 57.9275 70.0692C57.9077 70.0888 57.9077 70.1086 57.9077 70.1086L57.731 70.6995C57.6526 70.8968 57.5937 71.074 57.5153 71.271C57.4366 71.4683 57.3777 71.6652 57.2993 71.8424C57.2207 72.0397 57.1423 72.2169 57.0636 72.4138H57.0442C56.9652 72.5913 56.8872 72.7883 56.7891 72.9658C56.7693 73.0249 56.7496 73.0643 56.7302 73.1036C56.7104 73.1234 56.7104 73.1432 56.6907 73.1627C55.415 75.744 53.5309 78.0099 51.1755 79.7834C51.0185 79.8819 50.8614 79.9999 50.7047 80.1185C50.6652 80.1578 50.6063 80.1773 50.5671 80.217C50.4298 80.3155 50.2922 80.414 50.1355 80.5125L50.1941 80.6308H50.2139L51.0382 80.5125H51.0579C51.5682 80.4335 52.0785 80.335 52.5888 80.2365C52.726 80.2167 52.8834 80.1773 53.0207 80.138C53.1188 80.1182 53.1971 80.0987 53.2952 80.0788C53.4328 80.0593 53.5701 80.0197 53.7074 80.0002C53.8253 79.9605 53.9431 79.941 54.0609 79.9017C56.0237 79.4287 57.9275 78.7783 59.7529 78.0099C56.632 82.2859 52.4512 85.7341 47.5641 88C49.8214 87.8424 52.0785 87.4682 54.2572 86.8376C62.167 84.4927 68.8205 79.1528 72.8046 71.9607C71.9959 76.5229 70.1931 80.8493 67.5251 84.6305C69.4272 83.3709 71.1847 81.9039 72.7654 80.2563C77.162 75.6455 80.0471 69.7933 81.0285 63.5075C81.698 66.6259 81.89 69.8286 81.5977 73.0051C95.7683 53.1627 82.7753 32.5913 77.3384 27.1727C77.319 27.133 77.2993 27.1135 77.2993 27.0742C77.2798 27.0937 77.2798 27.0937 77.2798 27.1135C77.2798 27.0937 77.2798 27.0937 77.2601 27.0739C77.2601 27.3105 77.2403 27.5468 77.2206 27.7835C77.162 28.2366 77.103 28.6702 77.0244 29.1038C76.9263 29.5371 76.8087 29.9707 76.6909 30.404C76.5512 30.8307 76.3942 31.2515 76.2201 31.6652C76.0396 32.0735 75.843 32.4745 75.6308 32.8672C75.4152 33.2414 75.1795 33.6357 74.9244 33.9903C74.6719 34.3568 74.4033 34.7119 74.1195 35.0545C73.8252 35.4091 73.5114 35.7244 73.1973 36.0394C73.0125 36.2093 72.8227 36.3736 72.6281 36.5322C72.4711 36.67 72.3335 36.7883 72.1765 36.9262C71.8232 37.2021 71.47 37.4583 71.0776 37.6946C70.7046 37.9312 70.3122 38.1675 69.9195 38.3648C69.5073 38.5618 69.0951 38.739 68.6833 38.9164C68.2708 39.0741 67.8389 39.2122 67.4073 39.3302C66.9733 39.4475 66.5345 39.5462 66.0921 39.626C65.6408 39.7047 65.1894 39.744 64.7575 39.7833C64.4435 39.8032 64.1294 39.823 63.8153 39.823C63.364 39.823 62.9126 39.7833 62.4807 39.7437C62.0294 39.7047 61.578 39.6455 61.1461 39.547C60.6948 39.4677 60.2629 39.3497 59.831 39.2119H59.8115C60.2434 39.1723 60.675 39.1329 61.1069 39.0543C61.5497 38.9766 61.9886 38.8779 62.4221 38.7585C62.8537 38.6414 63.2795 38.5035 63.6978 38.345C64.1294 38.1873 64.5416 37.9904 64.934 37.7931C65.3464 37.5961 65.7194 37.3793 66.1119 37.143C66.4848 36.8868 66.8575 36.6307 67.2111 36.3547C67.5627 36.0803 67.8969 35.7841 68.2119 35.468C68.5457 35.1722 68.84 34.8374 69.1343 34.5026C69.4212 34.1575 69.6962 33.8025 69.9586 33.4384C69.9981 33.3795 70.0373 33.3005 70.0765 33.2414C70.2727 32.9261 70.4689 32.6108 70.6457 32.2955C70.8616 31.9049 71.0581 31.5038 71.2346 31.0938C71.4119 30.6813 71.569 30.2604 71.7054 29.8326C71.843 29.4188 71.9411 28.9852 72.0392 28.5519C72.1179 28.0987 72.1962 27.6651 72.2354 27.2315C72.2749 26.7784 72.3141 26.3253 72.3141 25.8917C72.3141 25.5764 72.2943 25.2611 72.2746 24.9458C72.2357 24.4927 72.1768 24.0593 72.1179 23.6254C72.0405 23.181 71.9422 22.7405 71.8233 22.3054C71.686 21.8916 71.5487 21.4583 71.3916 21.0445C71.2346 20.6307 71.0384 20.2169 70.8419 19.8227C70.6262 19.4287 70.4103 19.0347 70.1746 18.6603C69.9241 18.291 69.6624 17.9296 69.3897 17.5765C69.0942 17.2366 68.7931 16.9016 68.4867 16.5715C68.3214 16.4025 68.1512 16.2382 67.9765 16.079C67.0972 15.3935 66.1869 14.7491 65.2483 14.1479C65.1111 14.0689 64.9932 14.0101 64.8556 13.9509C64.2081 13.5371 63.5997 13.32 62.9913 13.1231Z"
    fill="#3B82F6" />
</svg>