<svg width="100" height="100" viewBox="0 0 100 100" fill="none" xmlns="http://www.w3.org/2000/svg">
  <rect width="100" height="100"  fill="#1A1A1A" />
  <g clip-path="url(#clip0_347_8)">
    <path
      d="M46.3995 6.14254C48.5747 4.87073 51.4078 4.86498 53.5811 6.14254C64.5146 12.4534 75.4516 18.7543 86.3833 25.069C88.4394 26.2521 89.8147 28.5896 89.7938 31.0097V68.9782C89.8091 71.4985 88.2978 73.8918 86.1286 75.0481C75.231 81.3241 64.339 87.6079 53.4433 93.8839C51.2231 95.1806 48.3331 95.0807 46.1824 93.6777C42.9153 91.7431 39.6426 89.818 36.3751 87.8852C35.7075 87.4786 34.9548 87.155 34.4834 86.4937C34.9002 85.9199 35.6453 85.8484 36.2508 85.5979C37.6146 85.1549 38.8671 84.4438 40.1199 83.7538C40.4368 83.5323 40.8235 83.6172 41.1272 83.8154C43.921 85.4517 46.6901 87.1355 49.4932 88.7562C50.0912 89.1088 50.6967 88.6406 51.2078 88.3496C61.9017 82.1756 72.6088 76.025 83.3008 69.8491C83.697 69.6544 83.916 69.2249 83.8838 68.7816C83.8913 56.2566 83.8857 43.7293 83.8876 31.2043C83.9329 30.7014 83.6479 30.2389 83.2027 30.0331C72.3429 23.7857 61.4887 17.5288 50.6308 11.2799C50.4427 11.1478 50.2198 11.0769 49.9915 11.0765C49.7632 11.0762 49.5402 11.1464 49.3517 11.278C38.4937 17.5288 27.6414 23.7915 16.7835 30.0385C16.3398 30.2447 16.0421 30.6995 16.0949 31.2043C16.0968 43.7293 16.0949 56.2566 16.0949 68.7835C16.0761 68.9998 16.1226 69.2168 16.2281 69.4053C16.3337 69.5937 16.4933 69.7446 16.6854 69.8376C19.5829 71.5161 22.4841 73.1826 25.3835 74.8553C27.0169 75.7534 29.0224 76.287 30.822 75.5989C32.4101 75.0171 33.5233 73.3617 33.493 71.6392C33.508 59.1873 33.4855 46.7335 33.5042 34.2835C33.4645 33.7307 33.9779 33.274 34.504 33.326C35.8962 33.3165 37.2903 33.3069 38.6824 33.3299C39.2636 33.3165 39.6635 33.9117 39.5916 34.4686C39.586 46.9993 39.6066 59.5304 39.5823 72.0612C39.586 75.4007 38.2429 79.0346 35.2188 80.6686C31.4934 82.64 26.8888 82.2219 23.2083 80.3316C20.0222 78.7071 16.9816 76.79 13.8519 75.0497C11.6771 73.8998 10.1734 71.4969 10.1887 68.9785V31.0097C10.1659 28.5395 11.5959 26.1596 13.716 24.9937C24.6118 18.7125 35.5056 12.4266 46.3995 6.14254Z"
      fill="#3B82F6" />
    <path
      d="M55.9049 32.4436C60.657 32.1311 65.7443 32.2585 70.0206 34.6499C73.3314 36.4824 75.167 40.3285 75.2254 44.0858C75.1329 44.5926 74.6143 44.8722 74.1406 44.8374C72.7619 44.8355 71.3828 44.8566 70.004 44.8278C69.4192 44.8508 69.0792 44.3 69.0058 43.7718C68.6096 41.974 67.6499 40.1935 65.9933 39.3264C63.4505 38.0258 60.502 38.0912 57.7292 38.1184C55.705 38.2282 53.5283 38.4072 51.8133 39.6232C50.4967 40.5442 50.0968 42.4036 50.5667 43.901C51.0097 44.9762 52.2248 45.3232 53.219 45.6429C58.9458 47.1729 65.0145 47.0207 70.632 49.0342C72.9578 49.8551 75.2329 51.4508 76.029 53.9383C77.0703 57.2721 76.6138 61.257 74.2918 63.9334C72.4088 66.1358 69.6663 67.3345 66.931 67.9856C63.2921 68.8144 59.5157 68.8355 55.8203 68.4675C52.3454 68.0628 48.7293 67.1303 46.0468 64.7118C43.7529 62.6772 42.6325 59.5071 42.7437 56.4474C42.7703 55.9307 43.2739 55.5704 43.7585 55.6128C45.147 55.6014 46.5354 55.5975 47.9239 55.6148C48.4784 55.5742 48.8896 56.0638 48.918 56.5977C49.1742 58.3106 49.8044 60.1084 51.2666 61.1239C54.0885 62.9836 57.6292 62.8562 60.8604 62.9083C63.5373 62.787 66.5423 62.7503 68.7268 60.9429C69.8794 59.9121 70.2209 58.1874 69.9094 56.7037C69.5719 55.451 68.2891 54.8673 67.1875 54.4856C61.534 52.6588 55.3975 53.3217 49.7988 51.2558C47.5258 50.4353 45.3279 48.8839 44.4546 46.4986C43.2361 43.1226 43.7945 38.9469 46.3598 36.3608C48.8612 33.7885 52.4719 32.7982 55.9049 32.4436Z"
      fill="#3B82F6" />
  </g>
  <defs>
    <clipPath id="clip0_347_8">
      <rect width="80" height="90" fill="white" transform="translate(10 5)" />
    </clipPath>
  </defs>
</svg>