<svg width="100" height="100" viewBox="0 0 100 100" fill="none" xmlns="http://www.w3.org/2000/svg">
  <rect width="100" height="100" fill="#1A1A1A" />
  <path
    d="M90.5386 55.0483L80.3222 50.1131L90.0001 45.5867C90.751 45.2346 91.1916 44.306 90.6725 43.4403L89.6668 42.2761C89.0177 41.566 88.3129 41.0486 87.4566 41.3854L80.2661 44.0959C80.109 44.155 79.937 44.1623 79.7755 44.1167L76.9921 43.3282C76.8906 43.2995 76.7835 43.2977 76.6811 43.3229C76.5787 43.3482 76.4847 43.3996 76.4082 43.4721L73.4309 46.2983C72.779 42.5515 71.2527 39.0113 68.9758 35.9652L73.3284 35.9311C73.4205 35.9304 73.5107 35.9051 73.5898 35.8579C73.6689 35.8107 73.734 35.7433 73.7784 35.6627L75.3191 32.8679C75.3992 32.7225 75.5259 32.6082 75.6787 32.5434L82.8011 29.5064C83.2385 29.32 83.5076 28.4112 83.4236 27.8218L83.1918 25.6949C83.0025 25.0841 82.1446 24.5465 81.7348 24.6979L71.0209 28.4323L74.6639 18.388C74.9456 17.6083 74.6007 16.6405 73.6215 16.395L72.087 16.2832C71.126 16.2404 70.2616 16.3723 69.8943 17.2163L66.7263 24.2171C66.6571 24.37 66.5408 24.4967 66.3943 24.5786L63.8687 25.989C63.7766 26.0404 63.6995 26.115 63.6449 26.2052C63.5904 26.2955 63.5602 26.3984 63.5574 26.5038L63.4504 30.6091C60.3398 28.4197 56.7561 26.9959 52.9911 26.4536L56.0472 23.3495C56.1118 23.2839 56.1578 23.2022 56.1804 23.1129C56.2031 23.0237 56.2015 22.9299 56.1759 22.8415L55.2892 19.776C55.2431 19.6164 55.2516 19.4461 55.3135 19.2919L58.2023 12.1082C58.3803 11.6673 57.928 10.834 57.4514 10.4768L55.7836 9.13644C55.2175 8.8388 54.2306 9.06478 54.0481 9.46163L49.1128 19.6784L44.5864 10.0002C44.2343 9.24926 43.3057 8.80898 42.44 9.32772L41.2758 10.3338C40.5657 10.9829 40.0483 11.6874 40.3855 12.544L43.0956 19.7342C43.155 19.8914 43.1621 20.0632 43.1164 20.2247L42.3282 23.0084C42.2994 23.1098 42.2975 23.217 42.3228 23.3193C42.348 23.4217 42.3995 23.5157 42.4721 23.592L45.298 26.5693C41.5514 27.2211 38.0113 28.7474 34.9652 31.0241L34.9308 26.6721C34.9302 26.5799 34.905 26.4896 34.8579 26.4104C34.8108 26.3312 34.7434 26.266 34.6627 26.2214L31.8679 24.6811C31.7226 24.601 31.6082 24.4745 31.543 24.3218L28.5064 17.1988C28.32 16.7617 27.4112 16.4926 26.8214 16.5769L24.6946 16.8084C24.0841 16.9981 23.5462 17.8556 23.6976 18.2654L27.4323 28.9796L17.388 25.3366C16.6079 25.0546 15.6401 25.3999 15.3947 26.379L15.2828 27.9135C15.24 28.8742 15.372 29.7389 16.2159 30.1059L23.2168 33.2735C23.3698 33.3428 23.4965 33.4594 23.5783 33.6062L24.9893 36.1318C25.0937 36.3189 25.2895 36.4372 25.5038 36.4427L29.6084 36.5497C27.4193 39.6603 25.9957 43.2439 25.4536 47.0087L22.3492 43.9529C22.2835 43.8883 22.2019 43.8423 22.1126 43.8197C22.0233 43.7971 21.9296 43.7986 21.8411 43.8242L18.7756 44.711C18.6162 44.7572 18.4459 44.7487 18.2919 44.6866L11.1082 41.7975C10.6669 41.6202 9.83397 42.0725 9.47668 42.5487L8.13636 44.2168C7.83873 44.7826 8.06503 45.7692 8.46187 45.9521L18.678 50.8873L9.00008 55.4134C8.24919 55.7658 7.8089 56.6941 8.32765 57.5597L9.3337 58.7243C9.98279 59.434 10.6876 59.9518 11.5439 59.6149L18.7344 56.9045C18.8915 56.8454 19.0634 56.8381 19.225 56.8837L22.0084 57.6722C22.2146 57.7306 22.4364 57.6755 22.592 57.5283L25.5696 54.7021C26.2214 58.4487 27.7476 61.9888 30.0244 65.0349L25.6721 65.0693C25.58 65.07 25.4898 65.0953 25.4107 65.1425C25.3316 65.1897 25.2665 65.2571 25.2221 65.3377L23.6814 68.1322C23.601 68.2776 23.4743 68.392 23.3215 68.4573L16.1994 71.494C15.7617 71.6804 15.4926 72.5892 15.5769 73.1786L15.8084 75.3055C15.998 75.9163 16.8556 76.4539 17.2657 76.3025L27.9795 72.5681L24.3366 82.6124C24.0546 83.3921 24.3998 84.3599 25.379 84.6054L26.9135 84.7172C27.8742 84.76 28.7389 84.6281 29.1059 83.7841L32.2735 76.7833C32.343 76.6304 32.4596 76.5037 32.6062 76.4218L35.1318 75.0111C35.3189 74.9064 35.4372 74.7109 35.4427 74.4966L35.5497 70.3913C38.6603 72.5808 42.244 74.0046 46.0091 74.5468L42.953 77.6509C42.8885 77.7166 42.8426 77.7982 42.82 77.8875C42.7974 77.9768 42.799 78.0705 42.8246 78.1589L43.7113 81.2244C43.7573 81.384 43.7486 81.5544 43.6867 81.7085L40.7976 88.8922C40.6202 89.3331 41.0725 90.1663 41.5491 90.5236L43.2166 91.8636C43.7823 92.1613 44.7689 91.935 44.9521 91.5384L49.8867 81.3217L54.4138 90.9996C54.7659 91.7508 55.6941 92.1911 56.5601 91.6723L57.7241 90.6663C58.4338 90.0172 58.9519 89.3124 58.6147 88.4561L55.9042 81.2659C55.8451 81.1088 55.8379 80.9369 55.8838 80.7754L56.6717 77.9916C56.73 77.7854 56.6755 77.5637 56.528 77.408L53.7021 74.4304C57.4489 73.7787 60.989 72.2524 64.035 69.9753L64.0694 74.3283C64.0707 74.5157 64.1731 74.6878 64.3375 74.7783L67.1323 76.319C67.2775 76.3991 67.3916 76.5255 67.4571 76.6782L70.4938 83.801C70.6802 84.2383 71.589 84.5074 72.1787 84.4231L74.3053 84.1917C74.9161 84.002 75.4537 83.1444 75.3026 82.7346L71.5676 72.0205L81.6119 75.6634C82.3923 75.9455 83.3601 75.6002 83.6055 74.6211L83.7174 73.0865C83.7602 72.1259 83.6279 71.2612 82.7843 70.8942L75.7834 67.7262C75.6304 67.6569 75.5036 67.5405 75.4216 67.3939L74.0109 64.8682C73.9595 64.7762 73.885 64.6991 73.7948 64.6445C73.7046 64.59 73.6018 64.5598 73.4964 64.557L69.3911 64.45C71.5804 61.3396 73.0042 57.7561 73.5466 53.9914L76.651 57.0471C76.7166 57.1117 76.7982 57.1577 76.8874 57.1803C76.9767 57.2029 77.0703 57.2014 77.1587 57.1758L80.2246 56.2891C80.384 56.2428 80.5543 56.2514 80.7083 56.3134L87.892 59.2022C88.333 59.3799 89.1662 58.9276 89.5235 58.4513L90.8635 56.7835C91.1614 56.2178 90.9348 55.2312 90.5383 55.0483H90.5386ZM66.9222 47.7904H61.7557C61.386 46.112 60.6738 44.5279 59.6635 43.1375L63.2848 39.516C65.1555 41.8611 66.4439 44.6915 66.9222 47.7904ZM56.2489 39.9193C54.8015 38.9923 53.1781 38.3746 51.4806 38.105V32.9846C54.5259 33.3242 57.429 34.4563 59.9002 36.268L56.2489 39.9193ZM55.6199 50.5002C55.6199 53.8798 52.8802 56.6198 49.5002 56.6198C46.1206 56.6198 43.3806 53.8798 43.3806 50.5002C43.3806 47.1205 46.1203 44.3806 49.5002 44.3806C52.8802 44.3806 55.6199 47.1202 55.6199 50.5002ZM46.7904 33.0783V38.2447C45.1122 38.6147 43.5283 39.3269 42.1379 40.3369L38.5163 36.7154C40.8614 34.8447 43.6909 33.5566 46.7904 33.0783ZM38.9194 43.7516C37.9925 45.199 37.375 46.8224 37.1053 48.5199H31.9846C32.3245 45.4745 33.4566 42.5714 35.268 40.0999L38.9194 43.7516ZM32.0783 53.21H37.2451C37.6148 54.8883 38.3271 56.4722 39.3373 57.8625L35.7157 61.4841C33.845 59.1393 32.5565 56.3092 32.0783 53.21ZM42.7516 61.0811C44.199 62.0079 45.8224 62.6257 47.5199 62.8954V68.0158C44.4747 67.6761 41.5717 66.5441 39.1006 64.7324L42.7516 61.0811ZM52.2104 67.9221V62.7556C53.8886 62.3857 55.4725 61.6734 56.8629 60.6635L60.4841 64.2847C58.1394 66.1554 55.3096 67.4438 52.2104 67.9221ZM60.0815 57.2488C61.0081 55.8013 61.6257 54.1779 61.8955 52.4805H67.0162C66.6763 55.5258 65.5442 58.4287 63.7328 60.9001L60.0815 57.2488Z"
    fill="#3B82F6" />
</svg>