<svg width="100" height="100" viewBox="0 0 100 100" fill="none" xmlns="http://www.w3.org/2000/svg">
  <rect width="100" height="100" fill="#1A1A1A" />
  <path
    d="M51.9554 29.2218C51.2126 29.5024 51.3095 29.6227 53.1826 30.7052C55.3141 31.9081 55.7339 32.5897 53.6993 31.5071C51.5678 30.4246 47.5632 29.3019 45.7223 29.3019C43.2356 29.3019 42.7834 29.9034 42.9772 33.1109C43.3648 38.7642 48.0799 45.8609 52.6982 47.7453C54.4421 48.4269 54.0223 48.6274 52.1814 47.9458C49.2102 46.8231 46.1745 43.9364 44.0753 40.1675C43.0418 38.3232 41.9438 34.5543 41.9438 32.9104V31.7076H39.78C32.9656 31.7076 24.5688 35.0354 17.0762 40.6887C13.8467 43.1345 8.61478 47.9057 7.61361 49.2689L7 50.1109L9.06691 49.5095C18.7233 46.6628 26.1835 48.4269 30.8341 54.6816L32.5781 57.0071V53.158V49.309L36.3243 49.4293L40.0706 49.5496L41.5239 52.9576C42.3313 54.842 43.0741 56.4859 43.2033 56.6462C43.3971 56.9269 44.7212 54.2005 46.0776 50.6321L46.5943 49.3491H50.4052H54.216V56.7665C54.216 61.217 54.3452 64.184 54.539 64.184C54.7005 64.184 55.3141 63.4623 55.8954 62.5401C57.9623 59.3326 60.7397 58.1698 66.3592 58.1698C70.2992 58.1698 70.4607 58.0896 69.7825 56.3255C68.8459 53.8797 68.5553 54.0401 81.4412 50.7524C85.3489 49.75 89.2244 48.5472 90.0964 48.1062C91.4528 47.3444 91.7757 46.9434 92.6477 44.8184C93.875 41.7713 93.9072 40.4081 92.7769 39.7666C91.7757 39.2052 91.8403 39.1651 91.2267 40.9293L90.71 42.3326L90.8069 40.6085L90.8715 38.8845L88.9337 37.8821C83.5727 35.0755 74.4653 31.9482 66.6498 30.2642C61.967 29.2218 53.5056 28.6604 51.9554 29.2218ZM48.5643 34.1534C49.8885 34.835 51.5678 36.0779 52.3429 36.96C53.667 38.4835 53.6993 38.5236 52.6982 37.9222C51.5032 37.2005 51.4063 37.3208 52.1491 38.7241C52.7628 39.8868 52.569 39.967 51.4386 39.085C50.2437 38.0826 50.2437 38.5637 51.374 40.3279C52.3429 41.7713 52.3752 41.8515 51.6647 41.6109C50.9865 41.4104 50.9542 41.4104 51.4386 42.2524C51.7293 42.7335 52.1168 43.4552 52.3106 43.8963C52.6659 44.618 52.6336 44.618 51.6324 43.8963C48.8873 41.8916 45.1733 36.0378 45.1733 33.7123C45.1733 32.6298 45.7546 32.6699 48.5643 34.1534ZM68.2 36.118C70.3961 36.5189 76.177 38.1227 76.5 38.4033C76.9844 38.8845 75.305 39.3255 72.8506 39.3255C69.8794 39.3255 68.0385 38.684 67.2957 37.4411C67.0697 37.0401 66.3915 36.5189 65.8101 36.2784C64.4214 35.6368 65.2288 35.5968 68.2 36.118ZM73.1089 49.1085C68.2646 51.033 66.7144 52.5967 67.2311 54.9623C67.4895 56.2052 67.1666 55.9245 66.6498 54.4811C66.1331 52.8774 66.3915 52.1557 68.0062 50.9529C69.3627 49.9505 73.6903 48.1863 74.7237 48.2264C75.079 48.2264 74.3685 48.6274 73.1089 49.1085Z"
    fill="#3B82F6" />
  <path
    d="M40.006 65.1462V71H43.3971H46.7881V65.066V59.1722L45.5286 61.7382C43.5262 65.7877 43.4939 65.7877 42.2344 63.3019C39.8768 58.6109 40.006 58.5307 40.006 65.1462Z"
    fill="#3B82F6" />
</svg>