<svg width="100" height="100" viewBox="0 0 100 100" fill="none" xmlns="http://www.w3.org/2000/svg">
  <g clip-path="url(#clip0_358_18)">
    <rect width="100" height="100" fill="#1A1A1A" />
    <path
      d="M51.0211 10.0011L53.1883 14.0715C53.6755 14.8227 54.2033 15.4875 54.8251 16.1067C56.6478 17.9068 58.3469 19.8279 59.9105 21.8571C63.5826 26.6787 66.0593 32.0332 67.8281 37.8241C68.8888 41.3617 69.4649 44.9905 69.508 48.66C69.6857 59.6304 65.9248 69.0502 58.3423 76.8789C57.1089 78.1204 55.7764 79.2593 54.3581 80.2845C53.607 80.2845 53.2517 79.7084 52.9421 79.178C52.3783 78.1946 52.0031 77.1145 51.8357 75.9933C51.5692 74.6661 51.3941 73.3389 51.4804 71.9685V71.3493C51.4195 71.2174 50.7572 10.3132 51.0211 10.0011Z"
      fill="#35495E" />
    <path
      d="M51.0211 9.8666C50.9322 9.68896 50.8434 9.82346 50.7546 9.90974C50.7977 10.7979 50.4881 11.5897 50.0034 12.3459C49.4705 13.0971 48.7651 13.6731 48.0571 14.2923C44.1237 17.6979 41.0277 21.8114 38.5484 26.4122C35.2494 32.6041 33.5492 39.2402 33.067 46.2264C32.8462 48.7463 33.8639 57.6383 34.6581 60.2039C36.8253 67.015 40.7181 72.7222 45.7605 77.6757C46.9988 78.8684 48.3235 79.9749 49.6938 81.0382C50.0923 81.0382 50.1354 80.6829 50.2268 80.419C50.4014 79.8542 50.5346 79.2775 50.6252 78.6933L51.5134 72.0599L51.0211 9.8666Z"
      fill="#3B82F6" />
    <path
      d="M53.1882 82.9794C53.277 81.9644 53.7643 81.1219 54.2946 80.2819C53.7617 80.0611 53.3659 79.6221 53.0563 79.1323C52.7893 78.6686 52.5683 78.1799 52.3965 77.6732C51.7773 75.8156 51.6453 73.8667 51.4677 71.9685V70.8189C51.2469 70.9965 51.2012 72.4988 51.2012 72.7222C51.0721 74.7284 50.8059 76.7234 50.4044 78.6933C50.2724 79.4901 50.1836 80.2844 49.6938 80.9924C49.6938 81.0813 49.6938 81.1701 49.737 81.302C50.5338 83.6468 50.7521 86.0348 50.8866 88.4684V89.3566C50.8866 90.4174 50.8434 90.194 51.724 90.5493C52.0793 90.6813 52.4751 90.7269 52.8304 90.9909C53.0969 90.9909 53.14 90.7701 53.14 90.5925L53.008 89.1333V85.0629C52.9649 84.3523 53.0969 83.6468 53.1857 82.982L53.1882 82.9794Z"
      fill="#35495E" />
  </g>
  <defs>
    <clipPath id="clip0_358_18">
      <rect width="100" height="100" fill="white" />
    </clipPath>
  </defs>
</svg>