<svg width="100" height="100" viewBox="0 0 100 100" fill="none" xmlns="http://www.w3.org/2000/svg">
  <rect width="100" height="100" fill="#1A1A1A" />
  <g clip-path="url(#clip0_358_30)">
    <path
      d="M84.4014 72.4237C79.8889 72.3121 76.3916 72.7596 73.4584 73.9896C72.6122 74.3249 71.2582 74.3252 71.1454 75.3878C71.5967 75.8352 71.6531 76.5623 72.048 77.1772C72.7256 78.2954 73.9094 79.8054 74.9812 80.5887C76.1656 81.4832 77.3506 82.3778 78.5911 83.1607C80.7912 84.503 83.2735 85.2856 85.4169 86.6279C86.6583 87.4102 87.8984 88.4176 89.1395 89.2561C89.7601 89.7029 90.1547 90.4306 90.9448 90.7099V90.5425C90.5496 90.0388 90.4367 89.3121 90.0422 88.7528C89.4787 88.1935 88.9139 87.6902 88.3497 87.1309C86.7141 84.9504 84.6835 83.0489 82.4837 81.4832C80.6787 80.2528 76.7298 78.5753 75.9967 76.506C75.9967 76.506 75.9399 76.4504 75.8839 76.3945C77.1246 76.2827 78.5911 75.8352 79.7761 75.4997C81.6939 74.996 83.4424 75.1082 85.4169 74.6048C86.3192 74.3811 87.2218 74.1015 88.1241 73.8219V73.3188C87.1093 72.3121 86.3759 70.9702 85.304 70.0195C82.4272 67.5583 79.2681 65.1541 75.9967 63.1411C74.2479 62.0225 71.9913 61.2955 70.13 60.345C69.4536 60.0091 68.325 59.8417 67.9305 59.2824C66.9147 58.0523 66.3505 56.4308 65.6175 54.9767C63.9821 51.9007 62.4022 48.4897 60.9918 45.2466C59.977 43.0655 59.3565 40.8843 58.1154 38.8716C52.3054 29.3649 45.9876 23.6051 36.2857 17.9567C34.1984 16.7826 31.7165 16.2792 29.0654 15.6644C27.6557 15.6081 26.245 15.4966 24.835 15.4403C23.9323 15.0488 23.0297 13.9866 22.2399 13.4832C19.0253 11.4698 10.7328 7.10848 8.36369 12.8683C6.84051 16.503 10.6202 20.0816 11.9171 21.9276C12.8768 23.2136 14.1173 24.6674 14.7942 26.1215C15.1891 27.0716 15.3016 28.0789 15.6965 29.0853C16.5995 31.5451 17.4451 34.2859 18.6301 36.5789C19.2506 37.753 19.9273 38.9831 20.7171 40.0457C21.1684 40.6606 21.9579 40.9405 22.1274 41.9469C21.3379 43.0655 21.2812 44.7433 20.8296 46.1411C18.799 52.4603 19.5891 60.2891 22.4656 64.9304C23.3679 66.3279 25.5116 69.4046 28.3884 68.2298C30.927 67.2234 30.3629 64.0359 31.0956 61.2399C31.2655 60.5681 31.1527 60.1213 31.4909 59.6739V59.7861C32.2807 61.3514 33.0701 62.8617 33.8035 64.4274C35.5523 67.1672 38.5981 70.0195 41.1364 71.921C42.4906 72.927 43.5622 74.6608 45.2546 75.276V75.1079H45.1414C44.803 74.6045 44.2952 74.3811 43.8442 73.9893C42.8291 72.9833 41.7005 71.7529 40.911 70.6343C38.5423 67.5024 36.4546 64.0356 34.5933 60.4566C33.691 58.7235 32.9009 56.8219 32.1678 55.0885C31.829 54.4167 31.829 53.4107 31.2652 53.0755C30.419 54.3055 29.1782 55.3681 28.5577 56.8779C27.4864 59.2824 27.3733 62.2462 26.9784 65.3216C26.7527 65.3781 26.8652 65.3216 26.7524 65.4341C24.9478 64.986 24.3272 63.1411 23.65 61.5751C21.9575 57.6049 21.6755 51.2299 23.1426 46.6445C23.5374 45.47 25.2299 41.7795 24.5529 40.6609C24.2144 39.5983 23.0858 38.9831 22.4656 38.1445C21.7325 37.0819 20.9424 35.7403 20.435 34.5655C19.0811 31.4339 18.4041 27.9667 16.9377 24.8351C16.2607 23.381 15.0766 21.8716 14.1173 20.5294C13.0457 19.0197 11.861 17.9567 11.0148 16.1674C10.7331 15.5525 10.3379 14.5458 10.7892 13.8747C10.902 13.4273 11.1273 13.2598 11.579 13.148C12.3123 12.5324 14.3997 13.3154 15.1324 13.651C17.2197 14.4893 18.9682 15.2729 20.7171 16.447C21.5065 17.0063 22.3528 18.0689 23.3679 18.3485H24.5526C26.3578 18.7397 28.3881 18.4604 30.0805 18.9634C33.0704 19.9139 35.7777 21.312 38.2035 22.8221C45.5931 27.4634 51.6845 34.0622 55.8027 41.9469C56.4797 43.2326 56.7614 44.4077 57.382 45.7493C58.567 48.4897 60.0335 51.2858 61.2175 53.97C62.4022 56.5979 63.5302 59.2824 65.2226 61.4636C66.0688 62.6374 69.453 63.2529 70.9762 63.8681C72.1044 64.3711 73.8533 64.8189 74.8684 65.4338C76.7862 66.6076 78.7039 67.9505 80.5092 69.2362C81.4118 69.9073 84.2318 71.3055 84.4014 72.4237Z"
      fill="#3B82F6" />
    <path
      d="M26.8649 23.8281C25.9062 23.8281 25.2296 23.9406 24.5526 24.1081V24.2199H24.6654C25.1171 25.1148 25.9062 25.73 26.47 26.5126C26.9217 27.4071 27.3163 28.3023 27.7679 29.1971C27.824 29.1409 27.8804 29.0853 27.8804 29.0853C28.6705 28.5257 29.0651 27.6312 29.0651 26.2889C28.7266 25.8978 28.6702 25.5063 28.3881 25.1148C28.05 24.5552 27.3163 24.2759 26.8649 23.8281Z"
      fill="#3B82F6" />
  </g>
  <defs>
    <clipPath id="clip0_358_30">
      <rect width="83" height="81" fill="white" transform="translate(8 10)" />
    </clipPath>
  </defs>
</svg>