<svg width="100" height="100" viewBox="0 0 100 100" fill="none" xmlns="http://www.w3.org/2000/svg">
  <rect width="100" height="100" fill="#1A1A1A" />
  <g clip-path="url(#clip0_358_55)">
    <path
      d="M49.5 25.0665C38.4334 25.0665 31.5166 30.6074 28.75 41.6888C32.9 36.148 37.7416 34.0702 43.275 35.4555C46.4319 36.2457 48.6885 38.5394 51.1863 41.0778C55.2552 45.2136 59.9642 50 70.25 50C81.3166 50 88.2334 44.4591 91 33.3777C86.85 38.9186 82.0084 40.9964 76.475 39.611C73.3181 38.8208 71.0615 36.5271 68.5637 33.9887C64.4948 29.8529 59.7858 25.0665 49.5 25.0665ZM28.75 50C17.6834 50 10.7666 55.5409 8 66.6223C12.15 61.0815 16.9916 59.0037 22.525 60.389C25.6819 61.1792 27.9385 63.4729 30.4363 66.0113C34.5052 70.1471 39.2142 74.9335 49.5 74.9335C60.5666 74.9335 67.4834 69.3926 70.25 58.3112C66.1 63.8521 61.2584 65.9299 55.725 64.5446C52.5681 63.7543 50.3115 61.4607 47.8137 58.9222C43.7448 54.7864 39.0358 50 28.75 50Z"
      fill="url(#paint0_linear_358_55)" />
  </g>
  <defs>
    <linearGradient id="paint0_linear_358_55" x1="-582.269" y1="2476.13" x2="-335.841" y2="5237.66"
      gradientUnits="userSpaceOnUse">
      <stop stop-color="#3B82F6" />
    </linearGradient>
    <clipPath id="clip0_358_55">
      <rect width="83" height="50" fill="white" transform="translate(8 25)" />
    </clipPath>
  </defs>
</svg>