<svg width="100" height="100" viewBox="0 0 100 100" fill="none" xmlns="http://www.w3.org/2000/svg">
  <rect width="100" height="100" fill="#1A1A1A" />
  <path
    d="M88.1138 23.0936L51.5631 88.4521C50.8083 89.8013 48.8698 89.8094 48.1035 88.4666L10.8284 23.0997C9.99401 21.6362 11.245 19.8637 12.9032 20.1599L49.4933 26.7003C49.7267 26.742 49.9657 26.7416 50.1989 26.6992L86.0237 20.1694C87.6763 19.8682 88.9337 21.6273 88.1138 23.0936Z"
    fill="url(#paint0_linear_360_148)" />
  <path
    d="M67.0382 12.1705L67.0382 12.1705C67.3267 12.1139 67.5733 12.3823 67.4916 12.6657L62.4323 30.2041L62.4322 30.2042C62.1026 31.3476 63.0966 32.4355 64.2651 32.2103L64.2653 32.2103L72.0165 30.7143C72.0165 30.7143 72.0166 30.7143 72.0166 30.7142C72.3375 30.6525 72.5889 30.985 72.4429 31.2764L72.9793 31.5452L72.4428 31.2764L50.417 75.233L50.0361 75.8216L50.5399 76.1476L50.0361 75.8216C49.7995 76.1873 49.233 75.9543 49.321 75.5287L49.321 75.5286L52.8766 58.3191L52.289 58.1977L52.8766 58.319C53.1211 57.1353 52.0098 56.121 50.8532 56.4721L50.853 56.4721L46.2017 57.8855C46.2017 57.8855 46.2017 57.8856 46.2016 57.8856C45.9166 57.972 45.6427 57.7222 45.7023 57.4307L45.7023 57.4305L47.9395 46.4745C48.172 45.3379 47.1506 44.3423 46.0203 44.6032C46.0203 44.6032 46.0203 44.6032 46.0203 44.6032L38.4895 46.3409L38.4895 46.3409C38.2344 46.3998 37.9935 46.197 38.0088 45.9344C38.0088 45.9344 38.0088 45.9343 38.0088 45.9342L39.6726 17.8332L39.6726 17.8332C39.6777 17.7461 39.7116 17.6632 39.769 17.5976C39.8264 17.5319 39.904 17.4872 39.9895 17.4705L39.9897 17.4704L67.0382 12.1705Z"
    fill="#35495E" stroke="#35495E" stroke-width="1.2" />
  <defs>
    <linearGradient id="paint0_linear_360_148" x1="9.91818" y1="17.8238" x2="55.406" y2="79.5999"
      gradientUnits="userSpaceOnUse">
      <stop stop-color="#3B82F6" />
      <stop offset="1" stop-color="#3B82F6" />
    </linearGradient>
  </defs>
</svg>