<svg width="100" height="100" viewBox="0 0 100 100" fill="none" xmlns="http://www.w3.org/2000/svg">
  <rect width="100" height="100" fill="#1A1A1A" />
  <path
    d="M82.5585 71.4725L54.7344 11.5862C54.3886 10.8493 53.8528 10.2209 53.1835 9.76738C52.5142 9.31389 51.7364 9.0522 50.9324 9.01002C50.1269 8.95531 49.322 9.12549 48.6052 9.50206C47.8885 9.87863 47.2873 10.4472 46.8671 11.1458L16.6891 60.6844C16.2303 61.4324 15.9913 62.2975 16.0002 63.1782C16.0092 64.0589 16.2657 64.9188 16.7396 65.6571L31.4938 88.814C32.052 89.6833 32.8725 90.3464 33.8329 90.7044C34.7934 91.0624 35.8423 91.0961 36.8232 90.8005L79.6401 77.9644C80.2848 77.7733 80.8815 77.4442 81.3899 76.9994C81.8983 76.5545 82.3066 76.0041 82.587 75.3856C82.8636 74.7702 83.0045 74.1012 82.9999 73.425C82.9953 72.7489 82.8454 72.0819 82.5606 71.4704L82.5585 71.4725ZM76.3291 74.041L39.9965 84.9297C38.8881 85.2639 37.8242 84.2901 38.0548 83.1564L51.0355 20.1629C51.2781 18.9844 52.8841 18.7976 53.3918 19.8883L77.4212 71.6057C77.5275 71.8361 77.5831 72.0872 77.5844 72.3415C77.5856 72.5959 77.5324 72.8475 77.4284 73.0789C77.3244 73.3104 77.1721 73.5163 76.982 73.6823C76.7919 73.8484 76.5685 73.9706 76.3273 74.0407L76.3291 74.041Z"
    fill="#3B82F6" />
</svg>