<svg width="100" height="100" viewBox="0 0 100 100" fill="none" xmlns="http://www.w3.org/2000/svg">
  <rect width="100" height="100" fill="#1A1A1A" />
  <path d="M19.6395 71.6956L16.6311 69.9799L50.1446 12.6418L53.153 14.3575L19.6395 71.6956Z" fill="#3B82F6" />
  <path d="M15.9423 65.3991H82.9693V68.8306H15.9423V65.3991Z" fill="#3B82F6" />
  <path
    d="M50.7946 86.4479L17.2686 67.3269L19.0054 64.3552L52.5315 83.4762L50.7946 86.4479ZM79.9187 36.6137L46.3926 17.4927L48.1295 14.521L81.6555 33.642L79.9187 36.6137Z"
    fill="#3B82F6" />
  <path d="M19.0147 36.6005L17.2778 33.629L50.8039 14.508L52.5408 17.4795L19.0147 36.6005Z" fill="#3B82F6" />
  <path
    d="M79.3005 71.6962L45.7869 14.3581L48.7953 12.6424L82.3088 69.9805L79.3005 71.6962ZM18.5999 31.3535H22.0736V69.5954H18.5999V31.3535Z"
    fill="#3B82F6" />
  <path d="M76.8589 31.3535H80.3327V69.5954H76.8589V31.3535Z" fill="#3B82F6" />
  <path d="M50.2033 84.9955L48.6862 82.3996L77.8449 65.7696L79.3621 68.3653L50.2033 84.9955Z" fill="#3B82F6" />
  <path
    d="M84.9364 70.7116C82.9275 74.1638 78.4492 75.342 74.9545 73.3576C71.4598 71.3731 70.267 66.9495 72.276 63.4974C74.2849 60.0453 78.7631 58.867 82.2578 60.8514C85.7734 62.8566 86.9662 67.2595 84.9364 70.7116ZM26.6356 37.4515C24.6267 40.9036 20.1485 42.0819 16.6538 40.0974C13.1591 38.113 11.9663 33.6893 13.9752 30.2372C15.9841 26.7851 20.4623 25.6068 23.957 27.5913C27.4517 29.5964 28.6445 33.9994 26.6356 37.4515ZM13.9961 70.7116C11.9872 67.2595 13.18 62.8566 16.6747 60.8514C20.1694 58.867 24.6267 60.0453 26.6565 63.4974C28.6655 66.9495 27.4727 71.3525 23.978 73.3576C20.4623 75.342 16.005 74.1638 13.9961 70.7116ZM72.2969 37.4515C70.288 33.9994 71.4808 29.5964 74.9754 27.5913C78.4701 25.6068 82.9275 26.7851 84.9573 30.2372C86.9662 33.6893 85.7734 38.0923 82.2787 40.0974C78.784 42.0819 74.3058 40.9036 72.2969 37.4515ZM49.4662 90.9489C45.4275 90.9489 42.163 87.7241 42.163 83.7346C42.163 79.745 45.4275 76.5203 49.4662 76.5203C53.505 76.5203 56.7695 79.745 56.7695 83.7346C56.7695 87.7035 53.505 90.9489 49.4662 90.9489ZM49.4662 24.4286C45.4275 24.4286 42.163 21.2039 42.163 17.2143C42.163 13.2247 45.4275 10 49.4662 10C53.505 10 56.7695 13.2247 56.7695 17.2143C56.7695 21.2039 53.505 24.4286 49.4662 24.4286Z"
    fill="#3B82F6" />
</svg>