<svg width="100" height="100" viewBox="0 0 100 100" fill="none" xmlns="http://www.w3.org/2000/svg">
  <rect width="100" height="100" fill="#1A1A1A" />
  <path d="M47.7829 24.9028V28.8055H52.0965H56.4101V24.9028V21H52.0965H47.7829V24.9028Z" fill="#3B82F6" />
  <path d="M27.6528 34.3516V38.2544H31.8637H36.0746V34.3516V30.4488H31.8637H27.6528V34.3516Z" fill="#3B82F6" />
  <path d="M37.7178 34.3516V38.2544H42.0314H46.345V34.3516V30.4488H42.0314H37.7178V34.3516Z" fill="#3B82F6" />
  <path d="M47.7829 34.3516V38.2544H52.0965H56.4101V34.3516V30.4488H52.0965H47.7829V34.3516Z" fill="#3B82F6" />
  <path
    d="M74.7121 34.2489C74.2191 35.0911 73.5823 36.4879 73.2947 37.3711C72.8428 38.7474 72.7607 39.3225 72.7607 41.5409C72.7607 43.8415 72.8018 44.2729 73.3153 45.6491C73.6234 46.4913 73.9315 47.3335 73.9931 47.5183C74.0753 47.7648 73.8699 47.9497 73.2537 48.1962C70.8298 49.1616 71.672 49.1411 40.573 49.1411H11.2817L11.1379 50.086C10.7887 52.633 11.1173 56.3509 11.9595 59.8018C14.4244 69.7642 21.3056 76.2962 31.3501 78.186C36.8962 79.2541 45.0099 78.9049 51.583 77.3438C57.9712 75.8443 64.0102 72.948 68.7346 69.1274C70.7271 67.5252 74.0342 64.0743 75.6159 61.9792C77.2386 59.8224 79.0873 56.7207 80.2376 54.2352L81.1619 52.2222H82.3944C86.6053 52.1811 90.1383 50.5584 92.2951 47.6416C93.1989 46.4091 94 44.8686 94 44.314C94 43.9442 91.494 42.6707 89.8918 42.2393C88.8853 41.9517 87.8583 41.8696 85.6604 41.8696L82.7436 41.8901L82.6203 41.1507C82.4355 40.0414 81.3879 37.9668 80.2992 36.57C79.3338 35.3581 76.2732 32.7083 75.8213 32.7083C75.698 32.7083 75.1845 33.4067 74.7121 34.2489Z"
    fill="#3B82F6" />
  <path d="M17.3823 43.8004V47.7032H21.6959H26.0095V43.8004V39.8977H21.6959H17.3823V43.8004Z" fill="#3B82F6" />
  <path d="M27.6528 43.8004V47.7032H31.8637H36.0746V43.8004V39.8977H31.8637H27.6528V43.8004Z" fill="#3B82F6" />
  <path d="M37.7178 43.8004V47.7032H42.0314H46.345V43.8004V39.8977H42.0314H37.7178V43.8004Z" fill="#3B82F6" />
  <path d="M47.7829 43.8004V47.7032H52.0965H56.4101V43.8004V39.8977H52.0965H47.7829V43.8004Z" fill="#3B82F6" />
  <path d="M58.0533 43.8004V47.7032H62.3669H66.6805V43.8004V39.8977H62.3669H58.0533V43.8004Z" fill="#3B82F6" />
</svg>