<svg width="100" height="100" viewBox="0 0 100 100" fill="none" xmlns="http://www.w3.org/2000/svg">
  <rect width="100" height="100" fill="#1A1A1A" />
  <path
    d="M89.356 30.6681L92 23.8038L91.8852 23.3786L65.728 30.2866C68.5171 26.243 67.559 23 67.559 23C67.559 23 59.2059 28.347 52.8888 28.2072C46.5721 28.0671 44.5357 26.3772 34.8495 29.4745C25.1632 32.5695 22.4267 42.07 19.6182 44.1108C16.8098 46.1517 8 52.7999 8 52.7999L8.01903 52.9179L15.962 50.3831C15.962 50.3831 13.7832 52.4404 9.155 58.6929L8.93877 58.4926L8.94697 58.5366C8.94697 58.5366 12.6666 64.2346 16.3176 63.1811C16.6845 63.0742 17.0976 62.8986 17.5491 62.668C19.0191 63.4886 20.9376 64.2951 23.056 64.5171C23.056 64.5171 21.6221 62.8463 20.4258 60.9452C20.7486 60.7367 21.08 60.5199 21.4167 60.3005L21.2605 60.4104L24.2848 61.5241L23.9511 58.6738C23.962 58.6682 23.9702 58.66 23.981 58.6544L26.9535 59.749L26.584 57.1565C26.9552 56.9616 27.3311 56.7759 27.7115 56.5997L30.8099 44.8522L43.6216 36.0921L42.6034 38.6602C40.006 45.0633 35.1287 46.575 35.1287 46.575L33.0924 47.3486C31.5791 49.1427 30.9412 49.5845 30.4214 55.6064C31.6421 55.2992 32.8079 55.2249 33.8641 55.5104C39.3382 56.9891 41.2348 63.6011 39.7595 65.4308C39.3901 65.889 38.5117 66.6708 37.4033 67.5901H35.1809L35.1507 69.3951C35.0739 69.4556 34.9975 69.5132 34.9233 69.5734H32.6625L32.6353 71.3347C32.4355 71.4886 32.2356 71.6366 32.0443 71.782C29.9204 71.8257 27.2298 69.9684 27.2298 69.9684C27.2298 71.6587 28.6341 74.2593 28.6341 74.2593C28.6341 74.2593 28.727 74.2156 28.8829 74.1386C28.746 74.2402 28.6696 74.2952 28.6696 74.2952C28.6696 74.2952 34.354 78.0947 37.9342 76.6873C41.117 75.4361 49.3582 68.9231 56.4716 65.8397L77.9976 60.1552L80.8359 52.7834L64.4306 57.1151V50.4955L83.6797 45.4116L86.518 38.0399L64.4362 43.8727V37.2495L89.356 30.6681Z"
    fill="#3B82F6" />
</svg>