<svg width="100" height="100" viewBox="0 0 100 100" fill="none" xmlns="http://www.w3.org/2000/svg">
<g clip-path="url(#clip0_367_14)">
<rect width="100" height="100" fill="#1A1A1A"/>
<g clip-path="url(#clip1_367_14)">
<path d="M11 11H89V89H11V11Z" fill="#3B82F6"/>
<g filter="url(#filter0_d_367_14)">
<path d="M53.5612 44.8203C49.6225 43.3639 47.4641 42.2305 47.4641 40.4502C47.4641 38.9389 48.7051 38.076 50.9174 38.076C54.964 38.076 59.1184 39.6409 61.9782 41.0434L63.5967 31.0618C61.3304 29.9826 56.6903 28.2023 50.2696 28.2023C45.7377 28.2023 41.9608 29.3891 39.2631 31.6014C36.4569 33.9213 35.0005 37.2668 35.0005 41.3134C35.0005 48.6511 39.4788 51.7806 46.7627 54.4244C51.4567 56.0971 53.0216 57.2842 53.0216 59.1184C53.0216 60.899 51.5103 61.9239 48.759 61.9239C45.3596 61.9239 39.7488 60.2515 36.0794 58.0934L34.4609 68.1828C37.5901 69.9634 43.4172 71.7976 49.4607 71.7976C54.2626 71.7976 58.2552 70.6648 60.9529 68.5067C63.9742 66.1326 65.5391 62.6256 65.5391 58.0934C65.5391 50.5935 60.9529 47.4641 53.5609 44.8206L53.5612 44.8203Z" fill="#1A1A1A"/>
</g>
</g>
</g>
<defs>
<filter id="filter0_d_367_14" x="-14.3672" y="-20.6258" width="167.797" height="180.314" filterUnits="userSpaceOnUse" color-interpolation-filters="sRGB">
<feFlood flood-opacity="0" result="BackgroundImageFix"/>
<feColorMatrix in="SourceAlpha" type="matrix" values="0 0 0 0 0 0 0 0 0 0 0 0 0 0 0 0 0 0 127 0" result="hardAlpha"/>
<feOffset dx="19.5312" dy="19.5312"/>
<feGaussianBlur stdDeviation="34.1797"/>
<feColorMatrix type="matrix" values="0 0 0 0 0 0 0 0 0 0 0 0 0 0 0 0 0 0 0.185125 0"/>
<feBlend mode="normal" in2="BackgroundImageFix" result="effect1_dropShadow_367_14"/>
<feBlend mode="normal" in="SourceGraphic" in2="effect1_dropShadow_367_14" result="shape"/>
</filter>
<clipPath id="clip0_367_14">
<rect width="100" height="100" fill="white"/>
</clipPath>
<clipPath id="clip1_367_14">
<rect width="78" height="78" fill="white" transform="translate(11 11)"/>
</clipPath>
</defs>
</svg>
