<svg width="100" height="100" viewBox="0 0 100 100" fill="none" xmlns="http://www.w3.org/2000/svg">
  <rect width="100" height="100" fill="#1A1A1A" />
  <g clip-path="url(#clip0_358_13)">
    <path d="M10 10H90V90H10V10Z" fill="#3B82F6" />
    <path
      d="M83.4525 70.9202C82.8669 67.27 80.4867 64.2053 73.4373 61.346C70.9886 60.2206 68.2585 59.4145 67.4449 57.559C67.1559 56.4791 67.1179 55.8707 67.3004 55.2168C67.8251 53.0951 70.3574 52.4335 72.365 53.0418C73.6578 53.4753 74.8821 54.4716 75.6198 56.0609C79.0722 53.8252 79.0646 53.8403 81.4753 52.3043C80.5931 50.9355 80.1217 50.3042 79.5437 49.7187C77.4677 47.3993 74.6388 46.2054 70.1141 46.2967C69.3308 46.3955 68.54 46.5019 67.7566 46.6009C65.4982 47.1712 63.346 48.3575 62.0836 49.9469C58.2966 54.2434 59.3764 61.7643 63.9848 64.8594C68.5247 68.2663 75.1939 69.0419 76.0456 72.2282C76.8745 76.1294 73.1788 77.3917 69.5057 76.9431C66.7985 76.3803 65.2928 75.0039 63.6654 72.502C60.6693 74.2358 60.6693 74.2358 57.5894 76.0077C58.3195 77.6047 59.0874 78.3271 60.3119 79.7111C66.1065 85.5895 80.6084 85.3005 83.2092 76.4031C83.3156 76.0989 84.0153 74.0609 83.4525 70.9202ZM53.4905 46.7681H46.0076C46.0076 53.232 45.9773 59.6502 45.9773 66.1141C45.9773 70.2282 46.1902 74 45.521 75.1559C44.4259 77.4296 41.5894 77.1483 40.2966 76.7072C38.9811 76.0608 38.3119 75.1406 37.5362 73.8403C37.3233 73.4677 37.1636 73.1787 37.1103 73.1559C35.0799 74.3955 33.057 75.6425 31.0266 76.8822C32.0381 78.9582 33.5285 80.7605 35.4373 81.9315C38.289 83.6425 42.1217 84.1672 46.1293 83.2471C48.7377 82.4866 50.9886 80.9126 52.1673 78.5171C53.8707 75.3764 53.5057 71.5742 53.4905 67.3688C53.5285 60.5095 53.4905 53.6502 53.4905 46.7681Z"
      fill="#1A1A1A" />
  </g>
  <defs>
    <clipPath id="clip0_358_13">
      <rect width="80" height="80" fill="white" transform="translate(10 10)" />
    </clipPath>
  </defs>
</svg>