<svg width="100" height="100" viewBox="0 0 100 100" fill="none" xmlns="http://www.w3.org/2000/svg">
  <rect width="100" height="100" fill="#1A1A1A" />
  <path fill-rule="evenodd" clip-rule="evenodd"
    d="M16.0151 50C16.0151 48.275 16.1435 46.5801 16.3915 44.9243L62.4135 18.3535C64.2142 19.0604 65.9399 19.9166 67.5754 20.9067L27.5679 44.005C27.3637 44.1164 27.172 44.2551 26.9987 44.4204C26.4879 44.9058 26.1953 45.5662 26.1614 46.2502C26.142 46.6425 26.2077 47.0425 26.3662 47.4219C26.4769 47.6885 26.6311 47.9394 26.8268 48.163C26.9809 48.3397 27.155 48.4928 27.3437 48.6208L48.9494 64.064L28.1795 76.0554C20.7432 69.8214 16.0151 60.4628 16.0151 50ZM55.2237 66.6924C55.2742 66.6653 55.3239 66.637 55.3728 66.6064L64.0807 61.5789C64.1177 61.5587 64.1543 61.5376 64.1904 61.5156L72.9179 56.4769C73.2512 56.2947 73.5513 56.0392 73.7919 55.714C74.6821 54.5132 74.4307 52.818 73.2301 51.9276L51.9717 36.1665L72.3525 24.3997C79.4815 30.6295 83.985 39.7888 83.985 50C83.985 52.0179 83.8087 53.9947 83.4719 55.916L38.3836 81.9477C36.5347 81.2752 34.7608 80.4469 33.0775 79.4785L55.2237 66.6924ZM54.0993 61.0908L33.8593 46.6237L38.0252 44.2185L57.8559 58.9218L54.0993 61.0908ZM43.1354 41.2682L46.8615 39.1169L66.6924 53.82L62.9661 55.9715L43.1354 41.2682ZM55.0034 16.3808L18.3769 37.5271C23.35 24.9287 35.634 16.0151 50 16.0151C51.6998 16.0151 53.3705 16.1398 55.0034 16.3808ZM46.0713 83.76C47.3603 83.9086 48.6712 83.985 50 83.985C63.9826 83.985 75.9928 75.5405 81.2096 63.4731L46.0713 83.76ZM50 10C27.9086 10 10 27.9086 10 50C10 72.0915 27.9086 90 50 90C72.0915 90 90 72.0915 90 50C90 27.9086 72.0915 10 50 10Z"
    fill="#3B82F6" />
</svg>