<svg width="116" height="116" viewBox="0 0 116 116" fill="none" xmlns="http://www.w3.org/2000/svg">
  <g filter="url(#filter0_d_347_8)">
    <rect x="8" y="4" width="100" height="100" rx="10" fill="#1A1A1A" />
    <g clip-path="url(#clip0_347_8)">
      <path
        d="M54.3995 10.1425C56.5747 8.87073 59.4078 8.86498 61.5811 10.1425C72.5146 16.4534 83.4516 22.7543 94.3833 29.069C96.4394 30.2521 97.8147 32.5896 97.7938 35.0097V72.9782C97.8091 75.4985 96.2978 77.8918 94.1286 79.0481C83.231 85.3241 72.339 91.6079 61.4433 97.8839C59.2231 99.1806 56.3331 99.0807 54.1824 97.6777C50.9153 95.7431 47.6426 93.818 44.3751 91.8852C43.7075 91.4786 42.9548 91.155 42.4834 90.4937C42.9002 89.9199 43.6453 89.8484 44.2508 89.5979C45.6146 89.1549 46.8671 88.4438 48.1199 87.7538C48.4368 87.5323 48.8235 87.6172 49.1272 87.8154C51.921 89.4517 54.6901 91.1355 57.4932 92.7562C58.0912 93.1088 58.6967 92.6406 59.2078 92.3496C69.9017 86.1756 80.6088 80.025 91.3008 73.8491C91.697 73.6544 91.916 73.2249 91.8838 72.7816C91.8913 60.2566 91.8857 47.7293 91.8876 35.2043C91.9329 34.7014 91.6479 34.2389 91.2027 34.0331C80.3429 27.7857 69.4887 21.5288 58.6308 15.2799C58.4427 15.1478 58.2198 15.0769 57.9915 15.0765C57.7632 15.0762 57.5402 15.1464 57.3517 15.278C46.4937 21.5288 35.6414 27.7915 24.7835 34.0385C24.3398 34.2447 24.0421 34.6995 24.0949 35.2043C24.0968 47.7293 24.0949 60.2566 24.0949 72.7835C24.0761 72.9998 24.1226 73.2168 24.2281 73.4053C24.3337 73.5937 24.4933 73.7446 24.6854 73.8376C27.5829 75.5161 30.4841 77.1826 33.3835 78.8553C35.0169 79.7534 37.0224 80.287 38.822 79.5989C40.4101 79.0171 41.5233 77.3617 41.493 75.6392C41.508 63.1873 41.4855 50.7335 41.5042 38.2835C41.4645 37.7307 41.9779 37.274 42.504 37.326C43.8962 37.3165 45.2903 37.3069 46.6824 37.3299C47.2636 37.3165 47.6635 37.9117 47.5916 38.4686C47.586 50.9993 47.6066 63.5304 47.5823 76.0612C47.586 79.4007 46.2429 83.0346 43.2188 84.6686C39.4934 86.64 34.8888 86.2219 31.2083 84.3316C28.0222 82.7071 24.9816 80.79 21.8519 79.0497C19.6771 77.8998 18.1734 75.4969 18.1887 72.9785V35.0097C18.1659 32.5395 19.5959 30.1596 21.716 28.9937C32.6118 22.7125 43.5056 16.4266 54.3995 10.1425Z"
        fill="#3B82F6" />
      <path
        d="M63.9049 36.4436C68.657 36.1311 73.7443 36.2585 78.0206 38.6499C81.3314 40.4824 83.167 44.3285 83.2254 48.0858C83.1329 48.5926 82.6143 48.8722 82.1406 48.8374C80.7619 48.8355 79.3828 48.8566 78.004 48.8278C77.4192 48.8508 77.0792 48.3 77.0058 47.7718C76.6096 45.974 75.6499 44.1935 73.9933 43.3264C71.4505 42.0258 68.502 42.0912 65.7292 42.1184C63.705 42.2282 61.5283 42.4072 59.8133 43.6232C58.4967 44.5442 58.0968 46.4036 58.5667 47.901C59.0097 48.9762 60.2248 49.3232 61.219 49.6429C66.9458 51.1729 73.0145 51.0207 78.632 53.0342C80.9578 53.8551 83.2329 55.4508 84.029 57.9383C85.0703 61.2721 84.6138 65.257 82.2918 67.9334C80.4088 70.1358 77.6663 71.3345 74.931 71.9856C71.2921 72.8144 67.5157 72.8355 63.8203 72.4675C60.3454 72.0628 56.7293 71.1303 54.0468 68.7118C51.7529 66.6772 50.6325 63.5071 50.7437 60.4474C50.7703 59.9307 51.2739 59.5704 51.7585 59.6128C53.147 59.6014 54.5354 59.5975 55.9239 59.6148C56.4784 59.5742 56.8896 60.0638 56.918 60.5977C57.1742 62.3106 57.8044 64.1084 59.2666 65.1239C62.0885 66.9836 65.6292 66.8562 68.8604 66.9083C71.5373 66.787 74.5423 66.7503 76.7268 64.9429C77.8794 63.9121 78.2209 62.1874 77.9094 60.7037C77.5719 59.451 76.2891 58.8673 75.1875 58.4856C69.534 56.6588 63.3975 57.3217 57.7988 55.2558C55.5258 54.4353 53.3279 52.8839 52.4546 50.4986C51.2361 47.1226 51.7945 42.9469 54.3598 40.3608C56.8612 37.7885 60.4719 36.7982 63.9049 36.4436Z"
        fill="#3B82F6" />
    </g>
  </g>
  <defs>
    <filter id="filter0_d_347_8" x="0" y="0" width="116" height="116" filterUnits="userSpaceOnUse"
      color-interpolation-filters="sRGB">
      <feFlood flood-opacity="0" result="BackgroundImageFix" />
      <feColorMatrix in="SourceAlpha" type="matrix" values="0 0 0 0 0 0 0 0 0 0 0 0 0 0 0 0 0 0 127 0"
        result="hardAlpha" />
      <feOffset dy="4" />
      <feGaussianBlur stdDeviation="4" />
      <feComposite in2="hardAlpha" operator="out" />
      <feColorMatrix type="matrix" values="0 0 0 0 0 0 0 0 0 0 0 0 0 0 0 0 0 0 0.4 0" />
      <feBlend mode="normal" in2="BackgroundImageFix" result="effect1_dropShadow_347_8" />
      <feBlend mode="normal" in="SourceGraphic" in2="effect1_dropShadow_347_8" result="shape" />
    </filter>
    <clipPath id="clip0_347_8">
      <rect width="80" height="90" fill="white" transform="translate(18 9)" />
    </clipPath>
  </defs>
</svg>