<svg width="100" height="100" viewBox="0 0 100 100" fill="none" xmlns="http://www.w3.org/2000/svg">
  <rect width="100" height="100" fill="#1A1A1A" />
  <path
    d="M94 49.6404C94 43.7442 86.6166 38.1565 75.2966 34.6914C77.9089 23.153 76.7479 13.9731 71.6321 11.0341C70.4529 10.3447 69.0742 10.0181 67.5685 10.0181V14.0638C68.403 14.0638 69.0742 14.2271 69.6366 14.5355C72.1038 15.9506 73.1741 21.3388 72.3396 28.2691C72.14 29.9744 71.8135 31.7705 71.4144 33.6028C67.8587 32.732 63.9766 32.0607 59.8948 31.6253C57.4458 28.2691 54.906 25.2212 52.3481 22.5543C58.2621 17.0573 63.8133 14.0457 67.5866 14.0457V10C62.5978 10 56.0671 13.5558 49.4637 19.7241C42.8604 13.5921 36.3296 10.0726 31.3408 10.0726V14.1182C35.096 14.1182 40.6653 17.1117 46.5793 22.5725C44.0395 25.2393 41.4998 28.2691 39.087 31.6253C34.9872 32.0607 31.105 32.732 27.5493 33.621C27.1321 31.8068 26.8237 30.047 26.606 28.3598C25.7534 21.4295 26.8055 16.0413 29.2546 14.6081C29.7988 14.2815 30.5063 14.1364 31.3408 14.1364V10.0907C29.817 10.0907 28.4382 10.4173 27.2409 11.1067C22.1433 14.0457 21.0004 23.2074 23.6309 34.7095C12.3471 38.1928 5 43.7624 5 49.6404C5 55.5366 12.3834 61.1243 23.7034 64.5895C21.0911 76.1278 22.2521 85.3077 27.3679 88.2467C28.5471 88.9361 29.9258 89.2627 31.4497 89.2627C36.4384 89.2627 42.9692 85.7068 49.5726 79.5385C56.1759 85.6705 62.7067 89.1901 67.6955 89.1901C69.2193 89.1901 70.598 88.8635 71.7954 88.1741C76.893 85.2351 78.0359 76.0734 75.4054 64.5713C86.6529 61.1062 94 55.5184 94 49.6404ZM70.3803 37.5397C69.7091 39.88 68.8746 42.2929 67.9313 44.7058C67.1875 43.2544 66.4075 41.803 65.5548 40.3517C64.7203 38.9003 63.8314 37.4852 62.9425 36.1064C65.5186 36.4874 68.0039 36.9591 70.3803 37.5397ZM62.0717 56.861C60.6567 59.3101 59.2055 61.6323 57.6998 63.7912C54.9967 64.0271 52.2574 64.1541 49.5 64.1541C46.7607 64.1541 44.0214 64.0271 41.3365 63.8094C39.8308 61.6505 38.3614 59.3464 36.9464 56.9154C35.5677 54.5388 34.3159 52.1259 33.1731 49.6948C34.2978 47.2638 35.5677 44.8328 36.9283 42.4562C38.3433 40.007 39.7945 37.6848 41.3002 35.5259C44.0033 35.29 46.7426 35.163 49.5 35.163C52.2393 35.163 54.9786 35.29 57.6635 35.5077C59.1692 37.6666 60.6386 39.9707 62.0536 42.4017C63.4323 44.7783 64.6841 47.1912 65.8269 49.6223C64.6841 52.0533 63.4323 54.4843 62.0717 56.861ZM67.9313 54.5025C68.9109 56.9335 69.7454 59.3646 70.4348 61.723C68.0583 62.3036 65.5548 62.7934 62.9607 63.1744C63.8496 61.7775 64.7385 60.3442 65.573 58.8747C66.4075 57.4234 67.1875 55.9538 67.9313 54.5025ZM49.5363 73.8601C47.8492 72.1184 46.162 70.1772 44.4931 68.0546C46.1258 68.1272 47.7947 68.1816 49.4819 68.1816C51.1871 68.1816 52.8742 68.1453 54.5251 68.0546C52.8924 70.1772 51.2053 72.1184 49.5363 73.8601ZM36.0393 63.1744C33.4633 62.7934 30.978 62.3217 28.6015 61.7412C29.2727 59.4008 30.1072 56.9879 31.0505 54.5751C31.7943 56.0264 32.5744 57.4778 33.427 58.9291C34.2797 60.3805 35.1504 61.7956 36.0393 63.1744ZM49.4456 25.4208C51.1327 27.1624 52.8198 29.1036 54.4888 31.2262C52.8561 31.1536 51.1871 31.0992 49.5 31.0992C47.7947 31.0992 46.1076 31.1355 44.4568 31.2262C46.0895 29.1036 47.7766 27.1624 49.4456 25.4208ZM36.0212 36.1064C35.1323 37.5034 34.2434 38.9366 33.4089 40.4061C32.5744 41.8575 31.7943 43.3088 31.0505 44.7602C30.0709 42.3292 29.2364 39.8981 28.5471 37.5397C30.9236 36.9772 33.427 36.4874 36.0212 36.1064ZM19.6035 58.8203C13.1816 56.0808 9.02731 52.4887 9.02731 49.6404C9.02731 46.7921 13.1816 43.1818 19.6035 40.4605C21.1637 39.7893 22.8689 39.1906 24.6286 38.6282C25.6627 42.184 27.0232 45.885 28.7104 49.6767C27.0414 53.4502 25.6989 57.1331 24.683 60.6708C22.8871 60.1084 21.1818 59.4916 19.6035 58.8203ZM29.3634 84.7453C26.8963 83.3302 25.8259 77.942 26.6604 71.0118C26.86 69.3064 27.1865 67.5103 27.5856 65.678C31.1413 66.5488 35.0234 67.2201 39.1052 67.6555C41.5542 71.0118 44.094 74.0596 46.6519 76.7265C40.7379 82.2236 35.1867 85.2351 31.4134 85.2351C30.597 85.217 29.9077 85.0537 29.3634 84.7453ZM72.394 70.921C73.2466 77.8513 72.1945 83.2395 69.7454 84.6727C69.2012 84.9993 68.4937 85.1444 67.6592 85.1444C63.904 85.1444 58.3347 82.151 52.4207 76.6902C54.9605 74.0233 57.5002 70.9936 59.913 67.6373C64.0128 67.2019 67.895 66.5307 71.4507 65.6417C71.8679 67.4741 72.1945 69.2338 72.394 70.921ZM79.3783 58.8203C77.8182 59.4916 76.1129 60.0902 74.3532 60.6526C73.3192 57.0968 71.9586 53.3958 70.2715 49.6041C71.9405 45.8306 73.2829 42.1477 74.2988 38.61C76.0948 39.1724 77.8 39.7893 79.3965 40.4605C85.8184 43.2 89.9727 46.7921 89.9727 49.6404C89.9545 52.4887 85.8002 56.099 79.3783 58.8203Z"
    fill="#3B82F6" />
  <path
    d="M49.4819 57.9313C54.0606 57.9313 57.7723 54.2193 57.7723 49.6403C57.7723 45.0614 54.0606 41.3494 49.4819 41.3494C44.9032 41.3494 41.1914 45.0614 41.1914 49.6403C41.1914 54.2193 44.9032 57.9313 49.4819 57.9313Z"
    fill="#3B82F6" />
</svg>