<svg width="116" height="116" viewBox="0 0 116 116" fill="none" xmlns="http://www.w3.org/2000/svg">
  <g filter="url(#filter0_d_347_21)">
    <rect x="8" y="4" width="100" height="100" rx="10" fill="#1A1A1A" />
    <path
      d="M102 53.6404C102 47.7442 94.6166 42.1565 83.2966 38.6914C85.9089 27.153 84.7479 17.9731 79.6321 15.0341C78.4529 14.3447 77.0742 14.0181 75.5685 14.0181V18.0638C76.403 18.0638 77.0742 18.2271 77.6366 18.5355C80.1038 19.9506 81.1741 25.3388 80.3396 32.2691C80.14 33.9744 79.8135 35.7705 79.4144 37.6028C75.8587 36.732 71.9766 36.0607 67.8948 35.6253C65.4458 32.2691 62.906 29.2212 60.3481 26.5543C66.2621 21.0573 71.8133 18.0457 75.5866 18.0457V14C70.5978 14 64.0671 17.5558 57.4637 23.7241C50.8604 17.5921 44.3296 14.0726 39.3408 14.0726V18.1182C43.096 18.1182 48.6653 21.1117 54.5793 26.5725C52.0395 29.2393 49.4998 32.2691 47.087 35.6253C42.9872 36.0607 39.105 36.732 35.5493 37.621C35.1321 35.8068 34.8237 34.047 34.606 32.3598C33.7534 25.4295 34.8055 20.0413 37.2546 18.6081C37.7988 18.2815 38.5063 18.1364 39.3408 18.1364V14.0907C37.817 14.0907 36.4382 14.4173 35.2409 15.1067C30.1433 18.0457 29.0004 27.2074 31.6309 38.7095C20.3471 42.1928 13 47.7624 13 53.6404C13 59.5366 20.3834 65.1243 31.7034 68.5895C29.0911 80.1278 30.2521 89.3077 35.3679 92.2467C36.5471 92.9361 37.9258 93.2627 39.4497 93.2627C44.4384 93.2627 50.9692 89.7068 57.5726 83.5385C64.1759 89.6705 70.7067 93.1901 75.6955 93.1901C77.2193 93.1901 78.598 92.8635 79.7954 92.1741C84.893 89.2351 86.0359 80.0734 83.4054 68.5713C94.6529 65.1062 102 59.5184 102 53.6404ZM78.3803 41.5397C77.7091 43.88 76.8746 46.2929 75.9313 48.7058C75.1875 47.2544 74.4075 45.803 73.5548 44.3517C72.7203 42.9003 71.8314 41.4852 70.9425 40.1064C73.5186 40.4874 76.0039 40.9591 78.3803 41.5397ZM70.0717 60.861C68.6567 63.3101 67.2055 65.6323 65.6998 67.7912C62.9967 68.0271 60.2574 68.1541 57.5 68.1541C54.7607 68.1541 52.0214 68.0271 49.3365 67.8094C47.8308 65.6505 46.3614 63.3464 44.9464 60.9154C43.5677 58.5388 42.3159 56.1259 41.1731 53.6948C42.2978 51.2638 43.5677 48.8328 44.9283 46.4562C46.3433 44.007 47.7945 41.6848 49.3002 39.5259C52.0033 39.29 54.7426 39.163 57.5 39.163C60.2393 39.163 62.9786 39.29 65.6635 39.5077C67.1692 41.6666 68.6386 43.9707 70.0536 46.4017C71.4323 48.7783 72.6841 51.1912 73.8269 53.6223C72.6841 56.0533 71.4323 58.4843 70.0717 60.861ZM75.9313 58.5025C76.9109 60.9335 77.7454 63.3646 78.4348 65.723C76.0583 66.3036 73.5548 66.7934 70.9607 67.1744C71.8496 65.7775 72.7385 64.3442 73.573 62.8747C74.4075 61.4234 75.1875 59.9538 75.9313 58.5025ZM57.5363 77.8601C55.8492 76.1184 54.162 74.1772 52.4931 72.0546C54.1258 72.1272 55.7947 72.1816 57.4819 72.1816C59.1871 72.1816 60.8742 72.1453 62.5251 72.0546C60.8924 74.1772 59.2053 76.1184 57.5363 77.8601ZM44.0393 67.1744C41.4633 66.7934 38.978 66.3217 36.6015 65.7412C37.2727 63.4008 38.1072 60.9879 39.0505 58.5751C39.7943 60.0264 40.5744 61.4778 41.427 62.9291C42.2797 64.3805 43.1504 65.7956 44.0393 67.1744ZM57.4456 29.4208C59.1327 31.1624 60.8198 33.1036 62.4888 35.2262C60.8561 35.1536 59.1871 35.0992 57.5 35.0992C55.7947 35.0992 54.1076 35.1355 52.4568 35.2262C54.0895 33.1036 55.7766 31.1624 57.4456 29.4208ZM44.0212 40.1064C43.1323 41.5034 42.2434 42.9366 41.4089 44.4061C40.5744 45.8575 39.7943 47.3088 39.0505 48.7602C38.0709 46.3292 37.2364 43.8981 36.5471 41.5397C38.9236 40.9772 41.427 40.4874 44.0212 40.1064ZM27.6035 62.8203C21.1816 60.0808 17.0273 56.4887 17.0273 53.6404C17.0273 50.7921 21.1816 47.1818 27.6035 44.4605C29.1637 43.7893 30.8689 43.1906 32.6286 42.6282C33.6627 46.184 35.0232 49.885 36.7104 53.6767C35.0414 57.4502 33.6989 61.1331 32.683 64.6708C30.8871 64.1084 29.1818 63.4916 27.6035 62.8203ZM37.3634 88.7453C34.8963 87.3302 33.8259 81.942 34.6604 75.0118C34.86 73.3064 35.1865 71.5103 35.5856 69.678C39.1413 70.5488 43.0234 71.2201 47.1052 71.6555C49.5542 75.0118 52.094 78.0596 54.6519 80.7265C48.7379 86.2236 43.1867 89.2351 39.4134 89.2351C38.597 89.217 37.9077 89.0537 37.3634 88.7453ZM80.394 74.921C81.2466 81.8513 80.1945 87.2395 77.7454 88.6727C77.2012 88.9993 76.4937 89.1444 75.6592 89.1444C71.904 89.1444 66.3347 86.151 60.4207 80.6902C62.9605 78.0233 65.5002 74.9936 67.913 71.6373C72.0128 71.2019 75.895 70.5307 79.4507 69.6417C79.8679 71.4741 80.1945 73.2338 80.394 74.921ZM87.3783 62.8203C85.8182 63.4916 84.1129 64.0902 82.3532 64.6526C81.3192 61.0968 79.9586 57.3958 78.2715 53.6041C79.9405 49.8306 81.2829 46.1477 82.2988 42.61C84.0948 43.1724 85.8 43.7893 87.3965 44.4605C93.8184 47.2 97.9727 50.7921 97.9727 53.6404C97.9545 56.4887 93.8002 60.099 87.3783 62.8203Z"
      fill="#3B82F6" />
    <path
      d="M57.4818 61.9313C62.0605 61.9313 65.7723 58.2194 65.7723 53.6404C65.7723 49.0615 62.0605 45.3495 57.4818 45.3495C52.9031 45.3495 49.1913 49.0615 49.1913 53.6404C49.1913 58.2194 52.9031 61.9313 57.4818 61.9313Z"
      fill="#3B82F6" />
  </g>
  <defs>
    <filter id="filter0_d_347_21" x="0" y="0" width="116" height="116" filterUnits="userSpaceOnUse"
      color-interpolation-filters="sRGB">
      <feFlood flood-opacity="0" result="BackgroundImageFix" />
      <feColorMatrix in="SourceAlpha" type="matrix" values="0 0 0 0 0 0 0 0 0 0 0 0 0 0 0 0 0 0 127 0"
        result="hardAlpha" />
      <feOffset dy="4" />
      <feGaussianBlur stdDeviation="4" />
      <feComposite in2="hardAlpha" operator="out" />
      <feColorMatrix type="matrix" values="0 0 0 0 0 0 0 0 0 0 0 0 0 0 0 0 0 0 0.4 0" />
      <feBlend mode="normal" in2="BackgroundImageFix" result="effect1_dropShadow_347_21" />
      <feBlend mode="normal" in="SourceGraphic" in2="effect1_dropShadow_347_21" result="shape" />
    </filter>
  </defs>
</svg>