<svg width="100" height="100" viewBox="0 0 100 100" fill="none" xmlns="http://www.w3.org/2000/svg">
  <rect width="100" height="100" fill="#1A1A1A" />
  <g clip-path="url(#clip0_347_9)">
    <path d="M10 50V10H90V90H10" fill="#3B82F6" />
    <path
      d="M27.54 50.14V53.4H37.94V83H45.32V53.4H55.72V50.2C55.72 48.4 55.72 46.94 55.64 46.9C55.64 46.84 49.3 46.82 41.6 46.82L27.6 46.88V50.16L27.54 50.14ZM74.28 46.8C76.32 47.28 77.88 48.2 79.28 49.66C80.02 50.46 81.12 51.86 81.2 52.22C81.2 52.34 77.74 54.68 75.64 55.98C75.56 56.04 75.24 55.7 74.92 55.18C73.88 53.7 72.82 53.06 71.16 52.94C68.76 52.78 67.16 54.04 67.16 56.14C67.16 56.78 67.28 57.14 67.52 57.66C68.06 58.76 69.06 59.42 72.16 60.78C77.88 63.24 80.36 64.86 81.86 67.18C83.56 69.78 83.94 73.86 82.8 76.92C81.52 80.26 78.4 82.52 73.94 83.26C72.54 83.5 69.34 83.46 67.84 83.2C64.64 82.6 61.58 81 59.7 78.94C58.96 78.14 57.54 76 57.62 75.86L58.38 75.38L61.38 73.64L63.64 72.32L64.16 73.02C64.82 74.06 66.3 75.46 67.16 75.94C69.76 77.28 73.24 77.1 74.96 75.54C75.7 74.86 76.02 74.14 76.02 73.14C76.02 72.22 75.88 71.8 75.42 71.1C74.78 70.22 73.5 69.5 69.9 67.9C65.76 66.14 64 65.02 62.36 63.3C61.42 62.26 60.56 60.64 60.16 59.3C59.86 58.14 59.76 55.3 60.04 54.16C60.9 50.16 63.92 47.36 68.24 46.56C69.64 46.28 72.94 46.4 74.32 46.76L74.28 46.8Z"
      fill="#1A1A1A" />
  </g>
  <defs>
    <clipPath id="clip0_347_9">
      <rect width="80" height="80" fill="white" transform="translate(10 10)" />
    </clipPath>
  </defs>
</svg>