<svg width="116" height="116" viewBox="0 0 116 116" fill="none" xmlns="http://www.w3.org/2000/svg">
  <g filter="url(#filter0_d_347_9)">
    <rect x="8" y="4" width="100" height="100" rx="10" fill="#1A1A1A" />
    <g clip-path="url(#clip0_347_9)">
      <path d="M18 54V14H98V94H18" fill="#3B82F6" />
      <path
        d="M35.54 54.14V57.4H45.94V87H53.32V57.4H63.72V54.2C63.72 52.4 63.72 50.94 63.64 50.9C63.64 50.84 57.3 50.82 49.6 50.82L35.6 50.88V54.16L35.54 54.14ZM82.28 50.8C84.32 51.28 85.88 52.2 87.28 53.66C88.02 54.46 89.12 55.86 89.2 56.22C89.2 56.34 85.74 58.68 83.64 59.98C83.56 60.04 83.24 59.7 82.92 59.18C81.88 57.7 80.82 57.06 79.16 56.94C76.76 56.78 75.16 58.04 75.16 60.14C75.16 60.78 75.28 61.14 75.52 61.66C76.06 62.76 77.06 63.42 80.16 64.78C85.88 67.24 88.36 68.86 89.86 71.18C91.56 73.78 91.94 77.86 90.8 80.92C89.52 84.26 86.4 86.52 81.94 87.26C80.54 87.5 77.34 87.46 75.84 87.2C72.64 86.6 69.58 85 67.7 82.94C66.96 82.14 65.54 80 65.62 79.86L66.38 79.38L69.38 77.64L71.64 76.32L72.16 77.02C72.82 78.06 74.3 79.46 75.16 79.94C77.76 81.28 81.24 81.1 82.96 79.54C83.7 78.86 84.02 78.14 84.02 77.14C84.02 76.22 83.88 75.8 83.42 75.1C82.78 74.22 81.5 73.5 77.9 71.9C73.76 70.14 72 69.02 70.36 67.3C69.42 66.26 68.56 64.64 68.16 63.3C67.86 62.14 67.76 59.3 68.04 58.16C68.9 54.16 71.92 51.36 76.24 50.56C77.64 50.28 80.94 50.4 82.32 50.76L82.28 50.8Z"
        fill="#1A1A1A" />
    </g>
  </g>
  <defs>
    <filter id="filter0_d_347_9" x="0" y="0" width="116" height="116" filterUnits="userSpaceOnUse"
      color-interpolation-filters="sRGB">
      <feFlood flood-opacity="0" result="BackgroundImageFix" />
      <feColorMatrix in="SourceAlpha" type="matrix" values="0 0 0 0 0 0 0 0 0 0 0 0 0 0 0 0 0 0 127 0"
        result="hardAlpha" />
      <feOffset dy="4" />
      <feGaussianBlur stdDeviation="4" />
      <feComposite in2="hardAlpha" operator="out" />
      <feColorMatrix type="matrix" values="0 0 0 0 0 0 0 0 0 0 0 0 0 0 0 0 0 0 0.4 0" />
      <feBlend mode="normal" in2="BackgroundImageFix" result="effect1_dropShadow_347_9" />
      <feBlend mode="normal" in="SourceGraphic" in2="effect1_dropShadow_347_9" result="shape" />
    </filter>
    <clipPath id="clip0_347_9">
      <rect width="80" height="80" fill="white" transform="translate(18 14)" />
    </clipPath>
  </defs>
</svg>